<?xml version="1.0" encoding="utf-8"?>
<!-- Generator: Adobe Illustrator 28.2.0, SVG Export Plug-In . SVG Version: 6.00 Build 0)  -->
<svg version="1.1" id="DrG" xmlns="http://www.w3.org/2000/svg" xmlns:xlink="http://www.w3.org/1999/xlink" x="0px" y="0px"
	 viewBox="0 0 33.63 19.2" style="enable-background:new 0 0 33.63 19.2;" xml:space="preserve">
<style type="text/css">
	.st0{fill:#783931;}
</style>
<g>
	<path class="st0" d="M7.59,1.59c0.67,0,1.31,0.04,1.94,0.13c0.62,0.09,1.21,0.22,1.76,0.42c0.55,0.19,1.06,0.45,1.53,0.76
		c0.47,0.32,0.88,0.71,1.25,1.17l0.26,0.26c0.6,0.6,1.08,1.39,1.42,2.34c0.34,0.96,0.51,2.14,0.51,3.55c0,2.67-0.65,4.64-1.94,5.9
		c-1.3,1.26-3.25,1.9-5.86,1.9H3.04l-0.8-0.71V1.59H7.59z M3.29,2.65v13.61h4.4c2.27,0,3.97-0.55,5.1-1.66s1.69-2.81,1.69-5.13
		c0-1.34-0.18-2.45-0.54-3.33c-0.36-0.88-0.85-1.58-1.47-2.09c-0.63-0.51-1.36-0.87-2.19-1.08C9.44,2.75,8.55,2.65,7.59,2.65H3.29z
		M7.48,6.35c0.42,0,0.82,0.04,1.19,0.11c0.37,0.08,0.7,0.22,0.98,0.45c0.28,0.22,0.49,0.54,0.65,0.95
		c0.16,0.41,0.23,0.94,0.23,1.61c0,0.6-0.07,1.1-0.2,1.5c-0.14,0.39-0.34,0.71-0.6,0.94c-0.27,0.23-0.59,0.39-0.98,0.48
		c-0.39,0.09-0.83,0.14-1.32,0.14H7.27V6.35H7.48z M9.48,9.47c0-0.08,0-0.19-0.02-0.32C9.45,9.02,9.43,8.89,9.4,8.77
		S9.33,8.52,9.27,8.42C9.22,8.31,9.14,8.24,9.04,8.2v2.77C9.33,10.65,9.48,10.15,9.48,9.47z"/>
	<path class="st0" d="M19.2,16.05c-1.72-1.3-2.59-3.49-2.59-6.58c0-1.54,0.2-2.83,0.6-3.87c0.4-1.04,0.97-1.87,1.7-2.49
		c0.73-0.62,1.61-1.06,2.65-1.32s2.19-0.39,3.46-0.39c0.4,0,0.85,0.04,1.34,0.11c0.49,0.08,0.97,0.18,1.45,0.3
		c0.48,0.13,0.93,0.27,1.36,0.42c0.43,0.16,0.78,0.32,1.07,0.48l0.71,0.79v3.69l0.59,0.59v8.35c-0.6,0.42-1.2,0.77-1.78,1.04
		c-0.58,0.27-1.14,0.48-1.68,0.64c-0.54,0.15-1.05,0.26-1.54,0.32c-0.48,0.06-0.93,0.09-1.33,0.09c-2.57,0-4.51-0.65-5.81-1.95
		L19.2,16.05z M29.77,8.03H23.9v3.51h1.89v1.1c-0.19,0.02-0.37,0.04-0.53,0.04c-0.16,0.01-0.31,0.02-0.44,0.02
		c-0.51,0-0.97-0.06-1.37-0.17c-0.4-0.11-0.73-0.29-1.01-0.54c-0.27-0.25-0.48-0.58-0.62-1c-0.14-0.41-0.21-0.92-0.21-1.53
		c0-0.67,0.07-1.21,0.22-1.64c0.15-0.43,0.37-0.77,0.67-1.01c0.3-0.25,0.67-0.42,1.1-0.51s0.95-0.14,1.52-0.14
		c0.24,0,0.55,0.02,0.93,0.06s0.77,0.09,1.16,0.15S28,6.5,28.35,6.59c0.35,0.09,0.63,0.17,0.83,0.26V3.33
		c-0.18-0.1-0.43-0.2-0.76-0.31c-0.32-0.11-0.68-0.2-1.06-0.29c-0.38-0.08-0.78-0.15-1.19-0.2s-0.79-0.08-1.16-0.08
		c-1.11,0-2.11,0.11-3.02,0.34c-0.9,0.23-1.68,0.61-2.32,1.15S18.54,5.2,18.19,6.1s-0.52,2.02-0.52,3.36c0,4.65,2.26,6.97,6.79,6.97
		c0.37,0,0.77-0.03,1.2-0.08s0.87-0.15,1.34-0.27s0.93-0.29,1.4-0.5c0.47-0.21,0.92-0.46,1.37-0.76V8.03z"/>
</g>
</svg>
