<?xml version="1.0" standalone="no"?>
<!DOCTYPE svg PUBLIC "-//W3C//DTD SVG 20010904//EN"
 "http://www.w3.org/TR/2001/REC-SVG-20010904/DTD/svg10.dtd">
<svg version="1.0" xmlns="http://www.w3.org/2000/svg"
 width="300.000000pt" height="300.000000pt" viewBox="0 0 300.000000 300.000000"
 preserveAspectRatio="xMidYMid meet">
<metadata>
Created by potrace 1.14, written by Peter Selinger 2001-2017
</metadata>
<g transform="translate(0.000000,300.000000) scale(0.100000,-0.100000)"
fill="#000000" stroke="none">
<path d="M1612 2894 c-35 -43 -52 -94 -52 -162 0 -50 28 -133 49 -147 7 -4 2
-18 -14 -39 -14 -18 -25 -36 -25 -41 0 -4 -27 -33 -59 -64 -58 -56 -60 -57
-86 -43 -15 8 -45 12 -66 10 -36 -3 -37 -2 -22 14 9 10 12 19 7 19 -22 3 -49
-4 -71 -18 -20 -13 -23 -13 -23 0 0 16 37 67 57 80 7 4 13 14 13 22 0 18 -68
-15 -138 -67 -56 -41 -133 -137 -159 -198 -32 -72 -50 -162 -47 -231 l3 -70
-39 50 c-67 85 -142 106 -193 55 -39 -39 -46 -110 -22 -214 5 -21 0 -29 -31
-50 -53 -35 -153 -135 -201 -200 -129 -173 -187 -353 -186 -575 1 -197 49
-360 157 -528 51 -81 176 -215 224 -241 9 -5 19 -12 22 -15 13 -16 76 -55 138
-86 281 -141 601 -144 880 -8 288 140 477 391 532 709 15 88 13 237 -4 327
l-15 77 31 32 c119 122 202 355 197 555 -2 58 2 97 9 106 6 7 24 45 38 83 32
84 42 229 20 311 l-14 51 30 13 c70 29 158 150 158 216 -1 81 -29 101 -143
101 -82 0 -151 -14 -204 -41 -32 -17 -33 -16 -95 17 -95 52 -170 69 -277 64
-50 -2 -91 -1 -91 3 0 21 -101 115 -145 135 -73 35 -107 32 -143 -12z m-112
-1736 c149 -44 160 -246 18 -319 -63 -32 -148 -20 -196 28 -25 25 -49 85 -47
117 2 17 3 41 4 52 2 32 71 103 114 118 48 16 64 17 107 4z"/>
</g>
</svg>
