<?xml version="1.0" standalone="no"?>
<!DOCTYPE svg PUBLIC "-//W3C//DTD SVG 20010904//EN"
 "http://www.w3.org/TR/2001/REC-SVG-20010904/DTD/svg10.dtd">
<svg version="1.0" xmlns="http://www.w3.org/2000/svg"
 width="1667.000000pt" height="1667.000000pt" viewBox="0 0 1667.000000 1667.000000"
 preserveAspectRatio="xMidYMid meet">
<metadata>
Created by potrace 1.14, written by Peter Selinger 2001-2017
</metadata>
<g transform="translate(0.000000,1667.000000) scale(0.100000,-0.100000)"
fill="#000000" stroke="none">
<path d="M7819 16402 c-158 -94 -310 -242 -381 -372 -65 -118 -113 -302 -117
-453 -1 -16 -3 -16 -38 -1 -189 81 -393 152 -482 169 -208 39 -244 40 -277 12
-21 -18 -28 -33 -28 -61 0 -20 -1 -36 -2 -36 -2 0 -16 13 -31 30 -41 43 -187
127 -262 151 -81 25 -195 26 -271 3 -62 -18 -146 -59 -168 -80 -7 -8 -17 -14
-22 -14 -5 0 -42 -33 -83 -73 -73 -73 -163 -198 -209 -292 -142 -287 -118
-670 58 -938 l32 -49 -49 -61 c-28 -34 -80 -108 -117 -165 -37 -57 -95 -146
-129 -199 -83 -128 -136 -232 -223 -438 -92 -216 -122 -275 -158 -312 -16 -16
-85 -57 -153 -90 -156 -77 -289 -172 -404 -288 -109 -110 -122 -125 -195 -234
-176 -260 -263 -547 -262 -861 1 -131 10 -219 37 -345 26 -121 90 -297 146
-403 22 -41 39 -77 39 -80 0 -4 -30 -16 -67 -26 -127 -36 -259 -120 -334 -213
-42 -52 -87 -132 -88 -155 -1 -19 -14 -24 -86 -34 -27 -3 -81 -13 -120 -21
-38 -8 -81 -17 -95 -19 -14 -3 -41 -10 -60 -16 -33 -10 -36 -9 -60 22 -183
240 -380 387 -630 470 -111 37 -169 45 -315 44 -296 -3 -549 -142 -718 -395
-115 -173 -166 -349 -172 -589 -6 -220 22 -365 112 -577 34 -82 34 -83 16
-107 -10 -13 -55 -69 -100 -124 -46 -55 -121 -154 -168 -219 -47 -65 -90 -123
-95 -130 -6 -7 -10 -15 -10 -18 0 -4 -11 -21 -24 -38 -27 -37 -154 -249 -211
-351 -212 -387 -408 -883 -520 -1321 -19 -77 -40 -156 -45 -175 -6 -19 -12
-46 -14 -60 -3 -14 -16 -81 -30 -150 -15 -68 -31 -153 -37 -190 -5 -36 -12
-76 -14 -90 -2 -14 -7 -45 -10 -70 -3 -25 -8 -57 -11 -71 -2 -15 -6 -44 -9
-65 -2 -22 -7 -61 -10 -89 -3 -27 -8 -77 -11 -110 -2 -33 -6 -85 -9 -115 -28
-303 -23 -908 10 -1200 3 -30 8 -75 11 -100 4 -41 14 -115 30 -230 11 -82 49
-303 60 -350 3 -14 8 -38 11 -55 3 -16 21 -93 40 -170 19 -77 39 -158 44 -180
48 -195 195 -620 282 -817 13 -29 35 -78 48 -108 38 -86 197 -399 219 -430 11
-16 20 -32 20 -37 0 -4 16 -32 35 -60 19 -29 35 -55 35 -58 0 -3 8 -18 19 -33
10 -15 54 -81 97 -147 43 -66 81 -122 84 -125 3 -3 38 -50 79 -104 320 -430
728 -801 1153 -1050 329 -192 689 -326 1028 -382 19 -4 42 -8 50 -9 8 -2 40
-6 70 -10 30 -3 69 -9 85 -13 46 -9 3013 -12 3070 -3 28 5 81 12 119 15 115
10 317 54 469 101 632 198 1220 622 1699 1226 74 94 248 335 248 344 0 3 15
26 34 52 30 44 91 144 175 293 47 83 193 381 241 495 96 224 165 419 255 715
33 107 97 366 111 445 3 17 9 46 14 65 10 39 56 301 65 370 3 25 8 63 11 85 3
22 7 51 9 65 6 42 16 139 20 193 3 29 7 75 9 102 26 258 26 1002 1 1135 -1 8
-6 51 -9 95 -4 44 -9 94 -12 111 -4 29 -2 31 53 53 267 108 572 301 834 529
142 123 357 344 464 478 21 27 42 51 45 54 33 28 294 401 372 533 l42 70 22
-89 c37 -157 59 -217 126 -354 61 -123 101 -184 188 -287 146 -171 407 -353
612 -428 136 -50 193 -68 283 -89 89 -22 122 -28 215 -41 154 -22 433 -22 513
1 9 3 17 2 18 -3 5 -57 39 -181 61 -227 34 -67 98 -116 172 -132 42 -9 173 -6
236 6 471 86 1095 562 1539 1175 77 107 154 224 174 265 4 8 13 24 20 35 45
73 132 247 171 340 26 61 50 119 55 130 34 78 115 345 131 432 5 32 12 67 14
79 2 12 7 45 11 75 4 30 9 57 10 60 5 7 18 235 18 304 0 70 -12 218 -24 295
-19 122 -26 161 -50 250 -53 198 -152 431 -243 575 -18 28 -35 57 -38 65 -8
21 -144 207 -202 276 -27 33 -104 114 -171 180 l-123 122 64 27 c114 49 194
139 194 219 0 109 -159 344 -391 577 -322 323 -701 559 -1129 702 -152 51
-342 97 -465 113 -27 3 -53 8 -57 10 -27 16 -441 23 -603 10 -91 -7 -111 -10
-220 -26 -33 -5 -78 -12 -100 -15 -22 -4 -58 -11 -80 -16 -22 -5 -53 -12 -70
-15 -109 -20 -491 -136 -590 -179 -16 -7 -55 -23 -85 -35 -207 -85 -439 -208
-638 -337 -139 -91 -138 -91 -139 -56 0 27 -10 152 -18 223 -2 19 -6 64 -10
100 -3 36 -8 76 -10 90 -2 14 -7 45 -10 70 -5 39 -13 90 -41 255 -3 17 -10 50
-15 75 -6 25 -12 52 -14 60 -2 8 -11 48 -20 89 -9 40 -18 78 -19 85 -26 127
-155 485 -234 644 l-37 74 45 37 c275 223 435 563 434 921 -1 183 -48 387
-127 545 -127 256 -326 403 -558 410 -332 11 -682 -188 -978 -557 -30 -38 -58
-68 -62 -68 -4 0 -67 37 -141 83 -73 46 -214 130 -313 187 -360 207 -558 357
-839 636 -149 148 -325 356 -426 504 -25 36 -54 73 -64 83 -27 24 -74 20 -127
-11z m-4219 -6199 c11 -26 32 -62 46 -81 l26 -34 -20 -14 c-12 -8 -71 -55
-132 -104 -61 -50 -115 -88 -121 -85 -5 4 -9 16 -9 28 0 12 -9 54 -19 92 l-20
70 36 30 c33 27 185 143 190 144 1 1 11 -20 23 -46z m838 -463 c18 -4 50 -7
72 -6 22 0 40 1 40 0 0 0 -57 -51 -127 -111 -507 -439 -913 -966 -1208 -1568
-89 -182 -195 -425 -195 -447 0 -8 -4 -18 -9 -24 -11 -11 -132 -371 -161 -479
-41 -150 -80 -305 -85 -338 -3 -17 -12 -57 -20 -87 -7 -30 -16 -71 -19 -90 -3
-19 -12 -69 -20 -110 -8 -41 -17 -93 -20 -115 -4 -23 -8 -52 -11 -65 -2 -13
-9 -60 -15 -104 -6 -45 -13 -92 -15 -106 -2 -14 -7 -50 -10 -80 -4 -30 -8 -68
-10 -85 -2 -16 -6 -66 -10 -110 -4 -44 -9 -96 -10 -115 -25 -250 -25 -893 0
-1051 2 -13 6 -51 10 -84 3 -33 8 -80 11 -105 3 -25 7 -54 9 -65 2 -11 7 -42
10 -70 4 -27 9 -58 11 -68 3 -10 7 -30 9 -45 2 -15 15 -84 30 -152 14 -69 28
-136 31 -150 25 -129 160 -578 200 -667 8 -17 14 -34 14 -38 0 -20 144 -350
218 -499 360 -725 886 -1367 1457 -1778 365 -262 718 -428 1070 -503 129 -28
148 -26 -252 -26 l-252 -1 -73 33 c-274 125 -542 294 -793 498 -112 92 -119
98 -203 176 -384 356 -698 757 -991 1262 -41 71 -211 406 -211 416 0 3 -15 38
-34 79 -129 279 -283 751 -357 1093 -7 33 -13 62 -14 65 0 3 -5 28 -10 55 -4
28 -9 55 -11 60 -1 6 -7 42 -14 80 -6 39 -13 81 -16 95 -6 34 -19 140 -29 235
-4 33 -8 71 -10 85 -27 180 -26 823 0 1075 2 22 7 78 11 125 3 47 7 92 9 100
2 8 6 44 10 80 3 36 8 76 10 90 2 14 7 45 10 70 12 85 25 171 31 205 2 11 9
47 14 80 77 438 241 1003 385 1330 7 17 25 59 40 95 31 75 157 332 213 435
122 225 249 423 410 639 57 76 112 148 122 160 192 229 425 473 578 604 l73
62 37 -16 c20 -9 52 -20 70 -24z m2312 -409 c263 -40 470 -105 703 -222 408
-206 794 -554 1085 -979 39 -58 76 -110 82 -117 5 -7 10 -15 10 -17 0 -3 15
-29 33 -58 19 -29 37 -66 41 -83 8 -34 67 -150 103 -204 22 -32 74 -136 117
-233 9 -21 23 -53 31 -72 41 -93 108 -278 149 -412 26 -82 53 -171 62 -198 18
-57 44 -150 50 -186 3 -14 11 -52 18 -85 8 -33 19 -94 26 -135 7 -41 14 -84
16 -95 12 -62 27 -176 40 -300 3 -33 7 -71 9 -84 23 -144 23 -839 1 -981 -3
-14 -7 -54 -10 -90 -10 -98 -16 -147 -31 -240 -8 -47 -16 -102 -19 -122 -3
-21 -10 -57 -15 -80 -9 -41 -13 -61 -27 -133 -15 -85 -92 -359 -140 -505 -402
-1203 -1181 -2039 -2114 -2269 -186 -46 -325 -60 -540 -56 -102 2 -201 6 -220
10 -42 7 -134 23 -175 30 -92 16 -328 93 -435 142 -82 37 -217 106 -241 124
-15 10 -30 19 -33 19 -12 0 -205 136 -296 208 -111 88 -347 322 -441 437 -37
44 -100 127 -142 185 -42 58 -80 110 -84 116 -5 5 -14 21 -22 35 -8 13 -44 71
-80 129 -117 190 -270 513 -359 760 -87 240 -173 555 -216 795 -3 17 -8 39
-10 50 -2 11 -7 40 -10 65 -3 25 -8 56 -11 70 -3 14 -7 48 -11 75 -9 85 -14
129 -19 165 -33 259 -37 759 -9 1045 2 28 7 68 9 90 2 22 7 67 10 100 4 33 8
67 10 75 2 8 7 40 10 70 5 45 67 368 80 420 2 8 11 44 20 80 51 209 164 547
239 715 8 17 24 53 36 80 143 322 328 621 564 915 79 99 321 340 416 415 41
33 77 63 80 66 3 4 60 43 128 88 115 77 323 190 437 238 158 66 438 136 596
149 41 4 75 8 77 9 9 8 355 -4 422 -14z m2768 -173 c-3 -7 -13 -38 -23 -68
-10 -30 -20 -62 -23 -70 -3 -8 -6 -19 -8 -25 -2 -5 -11 -36 -22 -67 l-18 -58
-36 25 c-50 34 -133 71 -206 91 -52 15 -65 23 -88 58 -15 22 -38 52 -51 65
-12 14 -23 29 -23 33 0 5 24 8 53 8 88 1 320 10 323 13 1 1 30 4 65 5 48 3 61
0 57 -10z m-7260 -481 c51 -13 92 -28 91 -33 -1 -5 -44 -81 -97 -169 -189
-316 -387 -731 -514 -1080 -113 -308 -235 -749 -272 -985 -3 -19 -8 -46 -11
-60 -2 -13 -7 -42 -10 -65 -3 -22 -8 -47 -10 -55 -2 -8 -7 -39 -10 -69 -4 -30
-8 -61 -10 -70 -1 -9 -6 -45 -9 -81 -4 -36 -9 -78 -11 -95 -26 -214 -26 -979
0 -1125 2 -8 6 -53 10 -100 4 -47 9 -93 10 -102 2 -9 7 -48 10 -85 4 -37 8
-75 10 -83 2 -8 7 -37 11 -65 3 -27 8 -59 10 -70 4 -20 13 -72 19 -110 7 -46
24 -133 34 -175 5 -25 12 -59 16 -77 3 -18 10 -45 16 -60 6 -15 9 -28 8 -28
-4 0 23 -108 63 -253 58 -211 164 -512 234 -670 13 -29 24 -55 24 -58 0 -8
176 -363 215 -433 254 -456 598 -891 960 -1210 121 -107 271 -228 353 -285 28
-20 74 -52 102 -71 27 -19 53 -35 57 -35 3 0 14 -7 24 -16 10 -9 31 -23 48
-32 17 -10 79 -45 138 -78 187 -106 371 -190 573 -260 l95 -33 -80 -1 c-44 -1
-155 -1 -247 -1 l-167 0 -99 50 c-240 121 -590 344 -737 472 -11 10 -69 59
-130 110 -114 97 -305 283 -414 404 -199 222 -342 413 -533 715 -113 177 -278
503 -383 755 -135 323 -284 829 -345 1165 -11 63 -22 125 -24 136 -5 24 -11
67 -22 139 -3 28 -8 58 -10 69 -2 10 -6 44 -9 75 -4 31 -8 66 -10 79 -3 21 -6
50 -21 202 -28 307 -32 762 -9 1050 10 121 14 165 21 220 4 30 8 65 9 77 2 13
6 40 10 60 3 21 8 53 10 71 48 384 200 939 380 1387 94 234 111 273 226 505
87 174 302 560 313 560 0 0 43 -11 94 -23z"/>
<path d="M6329 9046 c-2 -2 -33 -6 -69 -10 -86 -8 -123 -14 -245 -40 -249 -53
-562 -197 -800 -369 -195 -140 -427 -362 -574 -547 -326 -409 -579 -931 -720
-1480 -38 -151 -75 -318 -86 -396 -14 -89 -16 -100 -20 -124 -2 -14 -7 -50
-10 -80 -3 -30 -7 -65 -9 -77 -3 -12 -7 -64 -11 -115 -3 -51 -8 -113 -11 -138
-5 -51 -5 -532 1 -599 14 -167 17 -199 20 -226 4 -27 8 -61 21 -165 2 -19 7
-47 10 -62 3 -15 7 -40 10 -57 9 -64 13 -88 33 -183 38 -181 56 -248 127 -468
65 -203 124 -349 214 -535 412 -851 1058 -1428 1797 -1605 44 -10 103 -22 130
-26 26 -3 50 -8 53 -9 12 -7 192 -17 300 -18 104 0 193 6 260 18 14 2 41 6 60
9 67 10 216 48 317 82 246 82 494 219 724 401 107 85 345 324 428 428 35 44
71 90 81 102 69 82 233 342 323 513 163 310 333 790 391 1100 3 14 10 50 16
80 6 30 13 71 16 90 3 19 9 58 14 85 10 58 17 111 25 198 3 34 8 71 10 82 10
49 20 288 20 475 0 218 -8 388 -24 510 -5 41 -12 107 -16 145 -4 39 -10 86
-15 105 -5 19 -14 67 -20 107 -6 39 -13 77 -14 85 -2 7 -6 31 -11 53 -103 523
-355 1119 -648 1530 -402 564 -916 939 -1472 1074 -66 16 -144 32 -174 36 -30
4 -63 9 -75 12 -24 5 -372 13 -377 9z m288 -200 c109 -7 264 -37 383 -72 98
-30 313 -118 352 -146 14 -10 30 -18 34 -18 15 0 163 -96 274 -179 123 -91
340 -298 440 -420 260 -315 474 -703 620 -1126 41 -120 66 -199 76 -240 1 -5
12 -46 23 -90 22 -83 74 -326 86 -405 4 -25 9 -52 10 -60 4 -25 20 -152 29
-230 27 -250 28 -740 1 -955 -2 -16 -7 -55 -10 -85 -14 -123 -22 -179 -30
-220 -6 -32 -24 -126 -30 -165 -20 -111 -69 -295 -132 -490 -93 -290 -255
-635 -411 -875 -292 -447 -639 -770 -1037 -964 -138 -67 -315 -130 -430 -152
-11 -2 -31 -6 -45 -9 -109 -23 -183 -29 -350 -30 -139 0 -258 8 -292 20 -7 2
-31 7 -53 10 -266 39 -660 229 -910 439 -167 141 -297 273 -413 421 -35 44
-69 87 -77 97 -21 26 -185 275 -185 282 0 4 -12 25 -26 48 -44 69 -159 305
-209 428 -108 263 -189 536 -244 820 -26 131 -30 154 -36 210 -3 25 -8 54 -10
65 -4 18 -6 42 -20 170 -31 294 -20 858 20 1085 1 8 6 40 10 70 4 30 22 132
40 225 174 875 589 1620 1155 2074 315 253 646 404 1000 456 14 2 72 7 130 11
58 4 106 7 107 8 1 1 17 1 35 0 18 -1 75 -5 125 -8z"/>
<path d="M6369 7656 c-2 -3 -24 -6 -49 -9 -338 -37 -676 -235 -940 -551 -156
-188 -259 -364 -367 -631 -79 -197 -142 -436 -169 -650 -3 -22 -7 -51 -10 -65
-25 -156 -24 -601 1 -750 3 -14 7 -47 10 -75 4 -27 8 -57 10 -65 2 -8 7 -31
10 -50 12 -75 68 -287 102 -388 36 -109 107 -277 125 -299 6 -7 8 -13 5 -13
-9 0 80 -157 147 -260 129 -197 245 -319 466 -493 32 -25 118 -77 186 -111
405 -205 857 -185 1250 55 150 91 323 246 445 399 104 130 243 363 304 510 10
25 27 64 37 87 64 148 152 491 173 673 3 30 10 89 15 130 9 78 6 548 -4 610
-3 19 -11 71 -17 115 -6 44 -17 112 -25 150 -9 39 -18 81 -20 95 -11 60 -78
280 -111 364 -227 583 -603 991 -1064 1154 -47 17 -99 33 -115 35 -16 3 -54
11 -84 17 -52 11 -303 23 -311 16z"/>
</g>
</svg>
